<?xml version="1.0" encoding="UTF-8" standalone="no"?>
<svg
   xmlns:dc="http://purl.org/dc/elements/1.1/"
   xmlns:cc="http://creativecommons.org/ns#"
   xmlns:rdf="http://www.w3.org/1999/02/22-rdf-syntax-ns#"
   xmlns:svg="http://www.w3.org/2000/svg"
   xmlns="http://www.w3.org/2000/svg"
   xmlns:sodipodi="http://sodipodi.sourceforge.net/DTD/sodipodi-0.dtd"
   xmlns:inkscape="http://www.inkscape.org/namespaces/inkscape"
   viewBox="0 0 1000 815.21364"
   version="1.1"
   id="svg83"
   sodipodi:docname="A.svg"
   width="1000"
   height="815.21362"
   inkscape:version="0.92.4 (5da689c313, 2019-01-14)">
  <metadata
     id="metadata89">
    <rdf:RDF>
      <cc:Work
         rdf:about="">
        <dc:format>image/svg+xml</dc:format>
        <dc:type
           rdf:resource="http://purl.org/dc/dcmitype/StillImage" />
        <dc:title></dc:title>
      </cc:Work>
    </rdf:RDF>
  </metadata>
  <defs
     id="defs87" />
  <sodipodi:namedview
     pagecolor="#ffffff"
     bordercolor="#111111"
     borderopacity="1"
     objecttolerance="10"
     gridtolerance="10"
     guidetolerance="10"
     inkscape:pageopacity="0"
     inkscape:pageshadow="2"
     inkscape:window-width="1920"
     inkscape:window-height="1017"
     id="namedview85"
     showgrid="false"
     fit-margin-top="0"
     fit-margin-left="0"
     fit-margin-right="0"
     fit-margin-bottom="0"
     inkscape:zoom="0.39332815"
     inkscape:cx="547.04505"
     inkscape:cy="379.6087"
     inkscape:window-x="1912"
     inkscape:window-y="-8"
     inkscape:window-maximized="1"
     inkscape:current-layer="svg83"
     inkscape:snap-grids="true">
    <inkscape:grid
       type="xygrid"
       id="grid109"
       originx="14.271995"
       originy="751.22061" />
  </sodipodi:namedview>
  <path
     d="m 1000,673.70623 v 84.49646 h -31.02851 v -78.91347 c 0,-19.21838 -8.26716,-29.95491 -24.37194,-29.95491 -16.10478,0 -26.73398,11.27335 -29.74015,30.16965 -0.85895,4.50933 -1.0737,11.48808 -1.0737,26.19711 v 52.39426 H 882.75713 V 623.88875 h 27.48549 c 0.10737,1.18101 0.75158,13.20591 0.75158,13.95748 0,0.96629 1.18106,1.50311 1.93264,0.85892 11.38071,-9.01869 23.94247,-17.39318 41.44297,-17.39318 28.77391,0 45.63019,19.43312 45.63019,52.39426 z"
     id="path49"
     inkscape:connector-curvature="0"
     style="stroke-width:1.07365251" />
  <path
     d="m 832.72489,623.99611 -0.96624,15.35323 c -0.10729,0.96628 -1.28835,1.50311 -1.93256,0.85892 -3.75776,-3.54305 -17.60787,-18.78892 -41.12087,-18.78892 -33.71268,0 -58.51406,29.096 -58.51406,68.6064 v 0 c 0,40.04726 24.58665,69.25061 58.51406,69.25061 22.65405,0 36.50416,-14.70905 39.08094,-17.93 0.75158,-0.85892 2.14737,-0.3221 2.14737,0.75156 -0.32218,4.07987 -0.85895,14.27956 -4.29467,22.97616 -4.2946,10.95125 -13.95748,21.15096 -33.39062,21.15096 -15.99739,0 -30.16961,-6.11982 -43.59026,-19.21839 l -16.21215,22.22461 c 14.70903,16.64161 37.89993,25.98239 63.13069,25.98239 40.58417,0 64.95604,-27.80759 64.95604,-73.2231 V 623.99611 Z m -37.36303,107.15054 c -20.0773,0 -34.24952,-17.39319 -34.24952,-41.12091 0,-23.72772 14.17222,-40.69143 34.24952,-40.69143 20.07735,0 34.24949,16.85635 34.24949,40.69143 -0.10729,23.83509 -14.27959,41.12091 -34.24949,41.12091 z"
     id="path51"
     inkscape:connector-curvature="0"
     style="stroke-width:1.07365251" />
  <path
     d="m 665.34253,718.37017 c 0,25.44557 -21.36568,42.51665 -52.71633,42.51665 -24.58667,0 -46.48916,-9.55551 -59.58772,-23.1909 v 0 0 l 10.19969,-24.26454 c 9.8776,8.91132 25.76766,21.68778 48.42174,21.68778 15.7827,0 24.90874,-6.97875 24.90874,-15.7827 0,-10.19969 -12.56175,-12.88382 -27.59288,-15.78269 -21.36568,-4.50934 -49.71011,-11.81017 -49.71011,-40.90618 0,-24.3719 19.75519,-41.12088 48.95854,-41.12088 22.43934,0 41.7651,8.58922 55.07839,19.7552 l -15.24586,21.36568 c -12.88384,-10.19968 -26.41185,-15.24585 -39.83253,-15.24585 -13.42066,0 -20.0773,5.58299 -20.0773,13.63538 0,11.27335 14.49431,14.17222 25.12348,16.31953 26.73395,5.15353 52.07214,13.20591 52.07215,41.01352 z"
     id="path53"
     inkscape:connector-curvature="0"
     style="stroke-width:1.07365251" />
  <path
     d="m 211.61693,621.31197 c -37.89992,0 -65.1707,29.41809 -65.1707,69.78743 0,40.36934 27.27078,69.78742 65.1707,69.78742 37.89995,0 65.2781,-29.41808 65.2781,-69.78742 0,-40.36934 -27.27079,-69.78743 -65.2781,-69.78743 z m 0,111.44515 c -20.0773,0 -34.2495,-17.07107 -34.2495,-41.76508 0,-24.58666 13.8501,-41.7651 34.2495,-41.7651 20.29204,0 34.24953,17.07108 34.24953,41.7651 0,24.69401 -14.17222,41.76508 -34.24953,41.76508 z"
     id="path55"
     inkscape:connector-curvature="0"
     style="stroke-width:1.07365251" />
  <path
     d="m 287.84627,691.0994 c 0,-39.83252 27.27078,-69.78743 63.6676,-69.78743 28.88126,0 50.03221,14.49432 59.90982,41.7651 l -27.4855,10.41443 c -7.51558,-16.85636 -17.39317,-24.04982 -32.31695,-24.04982 -18.68156,0 -32.63905,17.6079 -32.63905,41.76508 0,24.04982 13.85013,41.7651 32.63905,41.7651 15.03115,0 24.80137,-7.19349 32.31695,-24.04982 l 27.4855,10.41442 c -9.87761,27.27078 -31.02855,41.76509 -59.90982,41.76509 -36.39682,-0.21473 -63.6676,-30.16964 -63.6676,-70.00215 z"
     id="path57"
     inkscape:connector-curvature="0"
     style="stroke-width:1.07365251" />
  <path
     d="m 121.96693,561.61689 c -0.53683,0 -1.181,0.10733 -1.71782,0.42947 l -20.18468,10.73652 c -0.429472,0.21473 -0.644186,0.64419 -0.644186,1.07365 v 63.88234 c 0,1.07365 -1.288395,1.50311 -2.039946,0.85892 C 94.374064,636.02102 87.39533,629.47175 77.732446,624.9624 72.686282,622.60037 65.27808,621.31197 58.514068,621.31197 24.586643,621.31197 0,650.73006 0,691.0994 c 0,40.36934 24.586643,69.78742 58.514068,69.78742 17.822631,0 31.243284,-9.34077 39.403059,-17.71527 0.53682,-0.53682 0.858911,-0.85892 1.395748,-1.39575 0.751555,-0.75155 2.039935,-0.3221 2.039935,0.75156 l 1.07365,15.67533 H 130.4488 V 562.47582 c 0,-0.42946 -0.32209,-0.85893 -0.85893,-0.85893 0,0 -7.62294,0 -7.62294,0 z M 65.170714,732.75712 c -20.292036,0 -34.249515,-17.07107 -34.249515,-41.76508 0,-24.69402 14.27958,-41.65773 34.249515,-41.65773 20.077301,0 34.24953,17.07107 34.24953,41.76509 0,24.58665 -13.850128,41.65772 -34.24953,41.65772 z"
     id="path59"
     inkscape:connector-curvature="0"
     style="stroke-width:1.07365251" />
  <path
     d="m 701.84672,624.42557 -19.43312,10.30707 c -0.42946,0.21472 -0.64419,0.6442 -0.64419,1.07365 v 122.3964 h 31.02856 V 624.74767 c 0,-0.42947 -0.32209,-0.85892 -0.85892,-0.85892 h -8.3745 c -0.64419,0.10733 -1.18101,0.21473 -1.71783,0.53682 z"
     id="path61"
     inkscape:connector-curvature="0"
     style="stroke-width:1.07365251" />
  <path
     d="m 697.23003,602.20096 c 10.30706,0 18.68155,-8.37449 18.68155,-18.68155 0,-10.30707 -8.37449,-18.68155 -18.68155,-18.68155 -10.30708,0 -18.68156,8.37448 -18.68156,18.68155 0,10.30706 8.37448,18.68155 18.68156,18.68155 z"
     id="path63"
     inkscape:connector-curvature="0"
     style="stroke-width:1.07365251" />
  <path
     d="m 541.87249,623.88875 v 72.90101 c 0,55.29311 -30.9212,63.98969 -58.51407,63.98969 -27.59287,0 -58.51407,-8.80395 -58.51407,-63.98969 v -72.90101 h 30.9212 v 80.63131 c 0,7.83766 1.93257,28.23706 27.59287,28.23706 25.6603,0 27.59287,-20.29204 27.59287,-28.23706 v -80.63131 z"
     id="path65"
     inkscape:connector-curvature="0"
     style="stroke-width:1.07365251" />
  <g
     id="g81"
     transform="matrix(2.5329184,0,0,2.5329184,276.60696,-0.25261559)">
    <path
       d="M 139.5,139.5 V 189 c 0,2.6 -2.1,4.7 -4.7,4.7 H 4.7 C 2.1,193.7 0,191.6 0,189 V 59 c 0,-2.6 2.1,-4.7 4.7,-4.7 h 49.4 v 80.5 c 0,2.6 2.1,4.7 4.7,4.7 z"
       id="path75"
       inkscape:connector-curvature="0"
       style="fill:#4c00ff" />
    <path
       d="m 193.7,69.7 c 0,41.6 -24.3,69.7 -54.2,69.8 V 87.1 c 0,-1.5 -0.6,-3 -1.7,-4 L 110.6,55.9 c -1.1,-1.1 -2.5,-1.7 -4,-1.7 H 54.2 V 4.8 c 0,-2.6 2.1,-4.7 4.7,-4.7 h 73.3 C 167,0 193.7,28 193.7,69.7 Z"
       id="path77"
       inkscape:connector-curvature="0"
       style="fill:#ff5252" />
    <path
       d="m 137.8,83 c 1.1,1.1 1.7,2.5 1.7,4 v 52.4 H 58.9 c -2.6,0 -4.7,-2.1 -4.7,-4.7 V 54.2 h 52.4 c 1.5,0 3,0.6 4,1.7 z"
       id="path79"
       inkscape:connector-curvature="0" />
  </g>
</svg>
